<svg width="23" height="23" viewBox="0 0 23 23" fill="none" xmlns="http://www.w3.org/2000/svg">
<g id="bx:bxs-phone-call">
<path id="Vector" d="M19.1666 10.5407H21.0833C21.0833 5.62448 17.3717 1.91669 12.4487 1.91669V3.83335C16.3415 3.83335 19.1666 6.65373 19.1666 10.5407Z" fill="#BDBDBD"/>
<path id="Vector_2" d="M12.4584 7.66666C14.4737 7.66666 15.3334 8.52629 15.3334 10.5417H17.25C17.25 7.45104 15.549 5.75 12.4584 5.75V7.66666ZM15.7378 12.8829C15.5536 12.7155 15.3116 12.6262 15.0629 12.6339C14.8142 12.6416 14.5782 12.7457 14.4047 12.9241L12.1114 15.2825C11.5594 15.1771 10.4497 14.8312 9.30736 13.6917C8.16503 12.5484 7.81907 11.4358 7.71653 10.8876L10.0731 8.59337C10.2517 8.42004 10.3559 8.18399 10.3636 7.93519C10.3713 7.6864 10.2819 7.44437 10.1143 7.26033L6.57323 3.36662C6.40557 3.182 6.17254 3.07002 5.92363 3.05445C5.67473 3.03888 5.42956 3.12096 5.24019 3.28325L3.16061 5.0667C2.99492 5.23299 2.89603 5.4543 2.88269 5.68866C2.86832 5.92825 2.59423 11.6035 6.9949 16.0061C10.834 19.8442 15.6429 20.125 16.9673 20.125C17.1609 20.125 17.2797 20.1192 17.3114 20.1173C17.5457 20.1042 17.7669 20.0049 17.9324 19.8385L19.7149 17.7579C19.8773 17.5687 19.9595 17.3236 19.9441 17.0747C19.9287 16.8258 19.8169 16.5927 19.6324 16.4249L15.7378 12.8829Z" fill="#BDBDBD"/>
</g>
</svg>
