<svg width="20" height="20" viewBox="0 0 20 20" fill="none" xmlns="http://www.w3.org/2000/svg">
<g id="ic:round-email">
<path id="Vector" d="M16.6667 3.33334H3.33335C2.41669 3.33334 1.67502 4.08334 1.67502 5.00001L1.66669 15C1.66669 15.9167 2.41669 16.6667 3.33335 16.6667H16.6667C17.5834 16.6667 18.3334 15.9167 18.3334 15V5.00001C18.3334 4.08334 17.5834 3.33334 16.6667 3.33334ZM16.3334 6.87501L10.4417 10.5583C10.175 10.725 9.82502 10.725 9.55835 10.5583L3.66669 6.87501C3.58313 6.8281 3.50995 6.76473 3.45159 6.68872C3.39324 6.61272 3.35091 6.52566 3.32717 6.43282C3.30343 6.33998 3.29877 6.24329 3.31348 6.1486C3.3282 6.05391 3.36197 5.96319 3.41276 5.88193C3.46354 5.80067 3.53029 5.73056 3.60896 5.67584C3.68763 5.62112 3.77658 5.58294 3.87043 5.56359C3.96429 5.54425 4.06109 5.54415 4.15498 5.5633C4.24888 5.58245 4.33791 5.62045 4.41669 5.67501L10 9.16668L15.5834 5.67501C15.6621 5.62045 15.7512 5.58245 15.8451 5.5633C15.939 5.54415 16.0358 5.54425 16.1296 5.56359C16.2235 5.58294 16.3124 5.62112 16.3911 5.67584C16.4698 5.73056 16.5365 5.80067 16.5873 5.88193C16.6381 5.96319 16.6718 6.05391 16.6866 6.1486C16.7013 6.24329 16.6966 6.33998 16.6729 6.43282C16.6491 6.52566 16.6068 6.61272 16.5484 6.68872C16.4901 6.76473 16.4169 6.8281 16.3334 6.87501Z" fill="#BDBDBD"/>
</g>
</svg>
